# xmcd
#
# Track frame offsets: 
#        150
#        14744
#        31685
#        44776
#        65220
#        85520
#        111230
#        124640
#        139567
#        157485
#        174173
#
# Disc length: 2551 seconds
#
# Revision: 0
# Processed by: cddbd v1.5.2PL0 Copyright (c) Steve Scherf et al.
# Submitted via: ExactAudioCopy v0.99pb5
#
DISCID=9609f50b
DTITLE=Dennis Jones - Pleasure and Pain 
DYEAR=2009
DGENRE=Blues
TTITLE0=Brand New Day
TTITLE1=Don't Worry About Me
TTITLE2=I'm Good
TTITLE3=Kill The Pain
TTITLE4=Blue Over You
TTITLE5=Sunday Morning Rain
TTITLE6=Home Tonight
TTITLE7=Try Not To Lie
TTITLE8=I Want It Yesterday
TTITLE9=Him Or Me
TTITLE10=Hot Sauce
EXTD=
EXTT0=
EXTT1=
EXTT2=
EXTT3=
EXTT4=
EXTT5=
EXTT6=
EXTT7=
EXTT8=
EXTT9=
EXTT10=
PLAYORDER=
